Coordinates
version=1
nRows=7
nColumns=40
inDegrees=yes

Units are S.I. units (second, meters, Newtons, ...)
Angles are in degrees.

endheader
time	pelvis_tilt	pelvis_list	pelvis_rotation	pelvis_tx	pelvis_ty	pelvis_tz	hip_flexion_r	hip_adduction_r	hip_rotation_r	knee_angle_r	knee_angle_r_beta	ankle_angle_r	subtalar_angle_r	mtp_angle_r	hip_flexion_l	hip_adduction_l	hip_rotation_l	knee_angle_l	knee_angle_l_beta	ankle_angle_l	subtalar_angle_l	mtp_angle_l	lumbar_extension	lumbar_bending	lumbar_rotation	arm_flex_r	arm_add_r	arm_rot_r	elbow_flex_r	pro_sup_r	wrist_flex_r	wrist_dev_r	arm_flex_l	arm_add_l	arm_rot_l	elbow_flex_l	pro_sup_l	wrist_flex_l	wrist_dev_l
     47.48100000	     -7.71319976	     -4.67420522	    -14.34111680	      1.05853489	      0.93171724	      0.45461289	     22.90858134	      1.34984409	     -3.04308343	     15.15687592	     15.15687592	      6.54481381	     11.56074970	      6.58580931	      9.23939400	     -8.23330508	    -15.51104302	     17.10037390	     17.10037390	     14.56653897	    -14.08126164	      0.82317517	     -8.82695536	      6.41919070	      2.18182033	    -21.35986460	    -10.95572079	     -8.58805786	     30.61311646	     45.89055734	      0.00000000	      0.00000000	     41.30588377	    -25.53160724	    -11.18824611	     81.22018669	     48.22005903	      0.00000000	      0.00000000
     47.50200000	     -7.60101095	     -4.29266529	    -14.38172952	      1.06010158	      0.93067361	      0.45871576	     22.36624499	      1.37157141	     -3.46234399	     14.15311971	     14.15311971	      6.23718203	     11.99472565	      6.91621134	      8.44414309	     -7.95516114	    -15.97124744	     16.58036524	     16.58036524	     14.71535200	    -13.53513611	      0.27306725	     -8.61033869	      6.10654138	      2.43102002	    -20.83876797	    -11.04459294	     -8.34307103	     30.73725015	     45.87560253	      0.00000000	      0.00000000	     41.53061240	    -25.08586563	    -11.41551855	     82.25083992	     48.25687068	      0.00000000	      0.00000000
     47.52300000	     -7.49529383	     -3.96520623	    -14.32914067	      1.06197973	      0.92970086	      0.46294245	     21.94243604	      1.39767139	     -3.61597306	     13.82101797	     13.82101797	      5.98958173	     11.78436579	      6.20796483	      7.59408461	     -7.74013165	    -16.45928037	     15.96382896	     15.96382896	     14.69149704	    -12.82054076	     -0.77366330	     -8.43458425	      5.91624567	      2.42710403	    -20.07411544	    -11.29504953	     -7.92951316	     30.86359072	     45.85453112	      0.00000000	      0.00000000	     41.14847379	    -24.69139859	    -12.16369708	     83.70290950	     48.33240251	      0.00000000	      0.00000000
     47.54400000	     -7.46777711	     -3.62391851	    -14.14695979	      1.06407116	      0.92871336	      0.46725448	     21.59228367	      1.39456147	     -3.48672430	     13.73747368	     13.73747368	      5.08331945	     10.88668606	      2.74457923	      6.79071579	     -7.48214566	    -16.70750088	     15.19940713	     15.19940713	     14.34007449	    -12.41246578	     -2.17852979	     -8.12327898	      5.74494713	      1.83702682	    -18.86349739	    -11.79202426	     -6.72052885	     30.75126421	     45.80820865	      0.00000000	      0.00000000	     40.10310059	    -24.67683012	    -13.40751530	     85.35213542	     48.44182332	      0.00000000	      0.00000000
     47.56500000	     -7.39255015	     -3.31916042	    -13.91111136	      1.06631674	      0.92812662	      0.47165181	     21.41256557	      1.33582796	     -3.30147405	     14.38775158	     14.38775158	      5.38216335	      9.88735548	      1.95930970	      5.84104094	     -7.21161439	    -16.92264938	     14.29505459	     14.29505459	     14.45467354	    -11.70259296	     -2.17822023	     -7.90580343	      5.65198419	      1.99136809	    -18.15179626	    -12.06264275	     -6.64812270	     30.99282622	     45.80266253	      0.00000000	      0.00000000	     39.67463040	    -24.06927807	    -13.40426053	     85.65247627	     48.44456194	      0.00000000	      0.00000000
     47.58600000	     -7.36634972	     -3.14807739	    -13.57397043	      1.06862865	      0.92765170	      0.47626435	     21.21875234	      1.39310088	     -3.04910633	     15.11414011	     15.11414011	      5.71742281	      8.70278887	      0.95128655	      4.97048276	     -7.13442075	    -16.96857624	     13.48560462	     13.48560462	     14.53602952	    -10.95458190	     -2.18137039	     -7.68289147	      5.68623529	      2.03712117	    -17.40081897	    -12.41512868	     -6.66570822	     31.29263674	     45.80068481	      0.00000000	      0.00000000	     38.95830789	    -23.52590254	    -13.51882304	     85.87952610	     48.45139060	      0.00000000	      0.00000000
     47.60700000	     -7.32673192	     -2.98554993	    -13.14270457	      1.07089097	      0.92733794	      0.48096466	     20.99837462	      1.45308788	     -2.63266557	     15.86393903	     15.86393903	      6.03954027	      7.22880319	     -0.28991942	      4.08381857	     -7.07309332	    -17.02227083	     12.62115199	     12.62115199	     14.59185301	    -10.10372945	     -2.12142625	     -7.51723080	      5.72335989	      1.89904018	    -16.48691251	    -12.80034808	     -6.74503667	     31.72346233	     45.79898788	      0.00000000	      0.00000000	     38.01510220	    -22.98147833	    -13.73737473	     86.07094526	     48.46236755	      0.00000000	      0.00000000
